<?xml version="1.0" encoding="utf-8"?>
<!-- Generator: Adobe Illustrator 21.0.0, SVG Export Plug-In . SVG Version: 6.00 Build 0)  -->
<svg version="1.1" id="Layer_1" xmlns="http://www.w3.org/2000/svg" xmlns:xlink="http://www.w3.org/1999/xlink" x="0px" y="0px"
	 viewBox="0 0 171.1 52" style="enable-background:new 0 0 171.1 52;" xml:space="preserve">
<style type="text/css">
	.st0{clip-path:url(#SVGID_2_);fill:#FFFFFF;}
	.st1{clip-path:url(#SVGID_2_);fill:#323D77;}
	.st2{clip-path:url(#SVGID_2_);fill:#BC1118;}
</style>
<g>
	<defs>
		<rect id="SVGID_1_" x="0.4" width="170.7" height="52"/>
	</defs>
	<clipPath id="SVGID_2_">
		<use xlink:href="#SVGID_1_"  style="overflow:visible;"/>
	</clipPath>
	<path class="st0" d="M171.1,52H26.4c-14.4,0-26-11.6-26-26s11.6-26,26-26h144.7V52z"/>
	<path class="st1" d="M26.2,42.6c1.6,0,3.2-0.2,4.6-0.7V14.3h2.5v26.7c5.6-2.7,9.4-8.4,9.4-14.9c0-9.2-7.4-16.6-16.6-16.6
		c-1.5,0-2.9,0.2-4.3,0.6v28.8h-2.5V10.9c-5.7,2.6-9.7,8.4-9.7,15.1C9.6,35.2,17,42.6,26.2,42.6"/>
	<path class="st0" d="M21.9,38.8V10c-0.9,0.2-1.7,0.5-2.5,0.9v27.9H21.9z"/>
	<path class="st0" d="M30.8,14.3v27.7c0.9-0.3,1.7-0.6,2.5-1V14.3H30.8z"/>
	<polygon class="st2" points="6.8,39.3 25.8,21.8 28.1,25.7 44.6,14.8 44.9,15.2 27.5,30.9 25,27.5 7,39.7 	"/>
	<path class="st0" d="M44.7,15L27.5,30.6L25,27.2L6.9,39.5l18.8-17.3l2.3,3.9L44.7,15z M44.5,14.7L28.2,25.4l-2.1-3.5l-0.3-0.4
		l-0.4,0.4L6.6,39.2l0.5,0.7l17.8-12.1l2.2,3l0.3,0.4l0.3-0.3L45,15.3L44.5,14.7z"/>
	<polygon class="st1" points="68.9,28.4 57.4,28.4 57.4,38.4 51.5,38.4 51.5,13.8 57.4,13.8 57.4,23 68.9,23 68.9,13.8 74.9,13.8 
		74.9,38.4 68.9,38.4 	"/>
	<path class="st1" d="M84.8,30.1v8.3H79V13.8h13.9c5.1,0,9,2.5,9,8.1c0,5.8-4,8.2-9.3,8.2H84.8z M84.8,19v5.9h7.8
		c2.2,0,3.3-0.8,3.3-2.9c0-2-1.1-3-3.3-3H84.8z"/>
	<path class="st1" d="M130.7,33.2v5.2h-11.5v-5.3c2.7-0.9,5.6-3.6,5.6-7.2c0-4.4-3.3-7-6.7-7c-3.2,0-7,2.7-7,7
		c0,3.6,2.9,6.3,5.6,7.2v5.4h-11.6v-5.2h3c-2.2-2-3-4.2-3-7.4c0-7.7,6.5-12.4,13-12.4c6.5,0,12.7,5.1,12.7,12.4
		c0,3.1-1.2,5.6-3.1,7.4H130.7z"/>
	<polygon class="st1" points="141.1,23.2 141.1,38.4 135.3,38.4 135.3,13.8 140.8,13.8 152.4,28.5 152.4,13.8 158.3,13.8 
		158.3,38.4 152.9,38.4 	"/>
</g>
</svg>
